# xmcd
#
# Track frame offsets: 
#        150
#        24262
#        43312
#        67537
#        94175
#        116900
#        132562
#        160837
#        189562
#        215887
#        233625
#
# Disc length: 3462 seconds
#
# Revision: 0
# Processed by: cddbd v1.4PL0 Copyright (c) Steve Scherf et al.
# Submitted via: ExactAudioCopy v0.95a3
#
DISCID=990d840b
DTITLE=Ernie Williams - Something On My Mind
DYEAR=2002
DGENRE=Blues
TTITLE0=Sweet Lady of Mine
TTITLE1=C'Mon Baby
TTITLE2=Trouble at my Door
TTITLE3=Just Another Day
TTITLE4=I'll Take Care of You
TTITLE5=Be A Man
TTITLE6=Something on my Mind
TTITLE7=9/11 Blues
TTITLE8=No Doubt About It
TTITLE9=Little Virginia Shack
TTITLE10=Without Jesus
EXTD=
EXTT0=
EXTT1=
EXTT2=
EXTT3=
EXTT4=
EXTT5=
EXTT6=
EXTT7=
EXTT8=
EXTT9=
EXTT10=
PLAYORDER=
